<svg xmlns="http://www.w3.org/2000/svg" width="40.875" height="40" viewBox="0 0 40.875 40">
  <g id="calendar-2" transform="translate(-18.094 -18.884)">
    <path id="Path_85" data-name="Path 85" d="M56.021,24.833H23.481a2.655,2.655,0,0,0-2.654,2.654v31.4a2.654,2.654,0,0,0,2.654,2.654H56.021a2.654,2.654,0,0,0,2.654-2.654v-31.4A2.655,2.655,0,0,0,56.021,24.833Z" transform="translate(-1.219 -2.655)" fill="#dbd8dd"/>
    <path id="Path_86" data-name="Path 86" d="M58.675,27.487a2.655,2.655,0,0,0-2.654-2.654H23.481a2.655,2.655,0,0,0-2.654,2.654v15.7H58.675Z" transform="translate(-1.219 -2.655)" fill="#dbd8dd"/>
    <path id="Path_87" data-name="Path 87" d="M19.607,57.975l-1.5,12.766c-.152,1.3,1.023,2.361,2.626,2.361h35.6c1.6,0,2.779-1.065,2.626-2.361l-1.5-12.766Z" transform="translate(0 -17.443)" fill="#ededed"/>
    <path id="Path_88" data-name="Path 88" d="M39.221,41.494a7.96,7.96,0,0,1-1.894,2.315A12.844,12.844,0,0,1,34.2,45.847V47.9a14.182,14.182,0,0,0,2.243-1.1,10.942,10.942,0,0,0,2.016-1.467V58.9h2.132V41.494Z" transform="translate(-7.188 -10.089)" fill="#4288b9"/>
    <path id="Path_89" data-name="Path 89" d="M58.049,56.861a6.93,6.93,0,0,1,.9-1.157q.54-.573,2.459-2.182a37.469,37.469,0,0,0,3.151-2.9l.133-.15a7.892,7.892,0,0,0,1.412-2.115,5.246,5.246,0,0,0,.426-2.049,4.541,4.541,0,0,0-1.456-3.428,5.484,5.484,0,0,0-3.948-1.384,5.793,5.793,0,0,0-3.943,1.279A5.413,5.413,0,0,0,55.5,46.506l2.187.227a3.5,3.5,0,0,1,.936-2.553,3.3,3.3,0,0,1,2.459-.925,3.257,3.257,0,0,1,2.359.869,2.85,2.85,0,0,1,.908,2.138,4.385,4.385,0,0,1-1,2.558,13.309,13.309,0,0,1-1.667,1.8q-.9.839-2.154,1.872a22.139,22.139,0,0,0-2.785,2.63,7.8,7.8,0,0,0-1.4,2.3,3.748,3.748,0,0,0-.249,1.479H66.555V56.861Z" transform="translate(-16.509 -10.089)" fill="#4288b9"/>
    <g id="Group_551" data-name="Group 551" transform="translate(24.788 23.235)">
      <circle id="Ellipse_68" data-name="Ellipse 68" cx="1.613" cy="1.613" r="1.613" transform="translate(0 0)" fill="#b1b2b6"/>
      <circle id="Ellipse_69" data-name="Ellipse 69" cx="1.613" cy="1.613" r="1.613" transform="translate(8.087 0)" fill="#b1b2b6"/>
      <circle id="Ellipse_70" data-name="Ellipse 70" cx="1.613" cy="1.613" r="1.613" transform="translate(16.174 0)" fill="#b1b2b6"/>
      <circle id="Ellipse_71" data-name="Ellipse 71" cx="1.613" cy="1.613" r="1.613" transform="translate(24.261 0)" fill="#b1b2b6"/>
    </g>
    <g id="Group_552" data-name="Group 552" transform="translate(25.631 18.884)">
      <path id="Path_90" data-name="Path 90" d="M32.475,18.884a.77.77,0,0,0-.77.77V24.7a.77.77,0,0,0,1.539,0v-5.05A.769.769,0,0,0,32.475,18.884Z" transform="translate(-31.705 -18.884)" fill="#344d5b"/>
      <path id="Path_91" data-name="Path 91" d="M47.078,18.884a.77.77,0,0,0-.77.77V24.7a.77.77,0,0,0,1.539,0v-5.05A.769.769,0,0,0,47.078,18.884Z" transform="translate(-38.222 -18.884)" fill="#344d5b"/>
      <path id="Path_92" data-name="Path 92" d="M61.682,18.884a.77.77,0,0,0-.77.77V24.7a.77.77,0,0,0,1.539,0v-5.05A.769.769,0,0,0,61.682,18.884Z" transform="translate(-44.738 -18.884)" fill="#344d5b"/>
      <path id="Path_93" data-name="Path 93" d="M76.285,18.884a.77.77,0,0,0-.77.77V24.7a.77.77,0,0,0,1.539,0v-5.05A.769.769,0,0,0,76.285,18.884Z" transform="translate(-51.255 -18.884)" fill="#344d5b"/>
    </g>
    <path id="Path_94" data-name="Path 94" d="M39.221,41.494h1.373V50.62H38.462V45.337A10.942,10.942,0,0,1,36.446,46.8,14.182,14.182,0,0,1,34.2,47.9V45.847a12.844,12.844,0,0,0,3.123-2.038A7.96,7.96,0,0,0,39.221,41.494Z" transform="translate(-7.188 -10.089)" fill="#4da0dc"/>
    <path id="Path_95" data-name="Path 95" d="M66.86,46.307a5.247,5.247,0,0,1-.426,2.049,7.892,7.892,0,0,1-1.412,2.115l-.133.15h-2.88a13.308,13.308,0,0,0,1.667-1.8,4.385,4.385,0,0,0,1-2.558,2.85,2.85,0,0,0-.908-2.138,3.257,3.257,0,0,0-2.359-.869,3.3,3.3,0,0,0-2.459.925,3.5,3.5,0,0,0-.936,2.553l-2.187-.227a5.413,5.413,0,0,1,1.689-3.733,5.793,5.793,0,0,1,3.943-1.279A5.484,5.484,0,0,1,65.4,42.878,4.541,4.541,0,0,1,66.86,46.307Z" transform="translate(-16.836 -10.089)" fill="#4da0dc"/>
  </g>
</svg>
