<svg xmlns="http://www.w3.org/2000/svg" width="42.188" height="40" viewBox="0 0 42.188 40">
  <g id="Call_and_email" data-name="Call and email" transform="translate(-3.151 -6)">
    <path id="Path_71" data-name="Path 71" d="M15,6V28.607L28.333,17.593Z" transform="translate(-3.208 0)" fill="#ff9811"/>
    <path id="Path_72" data-name="Path 72" d="M42.718,17.593,56.051,28.607V6Z" transform="translate(-10.712 0)" fill="#ff9811"/>
    <path id="Path_73" data-name="Path 73" d="M32.73,24.058a1.459,1.459,0,0,1-1.914,0L28.333,21.9,15,32.912H48.547L35.214,21.9Z" transform="translate(-3.208 -4.305)" fill="#ffa733"/>
    <path id="Path_74" data-name="Path 74" d="M15,6,28.333,17.6l2.484,2.16a1.459,1.459,0,0,0,1.914,0l2.484-2.16L48.547,6Z" transform="translate(-3.208 0)" fill="#ffb655"/>
    <path id="Path_75" data-name="Path 75" d="M18.736,21.243a1.459,1.459,0,0,0,0-2.062l-6.188-6.188a1.459,1.459,0,0,0-2.063,0L8.423,15.055l8.251,8.251Z" transform="translate(-1.427 -1.777)" fill="#ff7956"/>
    <path id="Path_76" data-name="Path 76" d="M0,0H2.062V11.668H0Z" transform="translate(6.993 13.278) rotate(-45)" fill="#ff6243"/>
    <path id="Path_77" data-name="Path 77" d="M47.02,49.527a1.459,1.459,0,0,0,0-2.063l-6.188-6.188a1.459,1.459,0,0,0-2.062,0l-2.063,2.062,8.251,8.251Z" transform="translate(-9.085 -9.435)" fill="#ff7956"/>
    <path id="Path_78" data-name="Path 78" d="M0,0H2.062V11.668H0Z" transform="translate(27.616 33.904) rotate(-45)" fill="#ff6243"/>
    <path id="Path_79" data-name="Path 79" d="M15,34v2.188L17.649,34Z" transform="translate(-3.208 -7.58)" fill="#ee8700"/>
    <path id="Path_80" data-name="Path 80" d="M56.35,8.536V20.585A5.812,5.812,0,0,1,54.6,24.75l4.667,3.857V6Z" transform="translate(-13.929 0)" fill="#ee8700"/>
    <path id="Path_81" data-name="Path 81" d="M39.8,33.38H17.649L15,35.568H48.547l-4.667-3.857A5.814,5.814,0,0,1,39.8,33.38Z" transform="translate(-3.208 -6.961)" fill="#cc7400"/>
    <path id="Path_82" data-name="Path 82" d="M33.713,24.058a1.459,1.459,0,0,1-1.914,0L29.316,21.9,18.632,30.724H40.779a5.814,5.814,0,0,0,4.084-1.669L36.2,21.9Z" transform="translate(-4.191 -4.305)" fill="#ee8700"/>
    <path id="Path_83" data-name="Path 83" d="M14.215,25.261l1.032-1.031L7,15.979A13.127,13.127,0,0,0,7,34.543L17.309,44.857a13.127,13.127,0,0,0,18.564,0l-8.251-8.251-1.031,1.032a5.834,5.834,0,0,1-8.251,0l-4.125-4.125a5.852,5.852,0,0,1,0-8.251Z" transform="translate(0 -2.702)" fill="#ffcd00"/>
    <path id="Path_84" data-name="Path 84" d="M18.769,43.4,8.456,33.085A13.12,13.12,0,0,1,7.126,16.1L7,15.979A13.127,13.127,0,0,0,7,34.543L17.31,44.857a13.127,13.127,0,0,0,18.564,0l-.126-.125A13.118,13.118,0,0,1,18.769,43.4Z" transform="translate(-0.001 -2.702)" fill="#ebbf00"/>
  </g>
</svg>
