<svg xmlns="http://www.w3.org/2000/svg" width="44.677" height="34" viewBox="0 0 44.677 34"><defs><style>.a{fill:#f3f6ff;}</style></defs><g transform="translate(0 -57.75)"><g transform="translate(0 57.75)"><path class="a" d="M39.223,57.75H5.463A5.468,5.468,0,0,0,0,63.213V86.287A5.468,5.468,0,0,0,5.463,91.75h33.75a5.468,5.468,0,0,0,5.463-5.463V63.223A5.462,5.462,0,0,0,39.223,57.75ZM42.19,86.287a2.971,2.971,0,0,1-2.967,2.967H5.463A2.971,2.971,0,0,1,2.5,86.287V63.223a2.971,2.971,0,0,1,2.967-2.967h33.75a2.971,2.971,0,0,1,2.967,2.967V86.287Z" transform="translate(0 -57.75)"/><path class="a" d="M78.775,120.887l10.927-9.8a1.25,1.25,0,0,0-1.673-1.858L72.96,122.755l-2.94-2.625c-.009-.009-.018-.018-.018-.028a1.849,1.849,0,0,0-.2-.176l-11.962-10.7a1.251,1.251,0,1,0-1.664,1.867l11.056,9.882-11.01,10.307a1.253,1.253,0,0,0-.055,1.766,1.277,1.277,0,0,0,.915.4,1.251,1.251,0,0,0,.85-.333l11.176-10.455,3.032,2.709a1.245,1.245,0,0,0,1.664-.009l3.115-2.792,11.111,10.557a1.251,1.251,0,0,0,1.766-.046,1.253,1.253,0,0,0-.046-1.766Z" transform="translate(-50.599 -104.174)"/></g></g></svg>