<svg xmlns="http://www.w3.org/2000/svg" width="35" height="35" viewBox="0 0 35 35"><defs><style>.a{fill:#f3f6ff;stroke:#f3f6ff;}</style></defs><path class="a" d="M29.75,34h-8.5V21.25h4.122L26.456,17H21.25V11.9A2.55,2.55,0,0,1,23.8,9.35h2.55V5.1H23.8A6.811,6.811,0,0,0,17,11.9V17H12.75v4.25H17V34H4.25A4.25,4.25,0,0,1,0,29.75V4.25A4.25,4.25,0,0,1,4.25,0h25.5A4.25,4.25,0,0,1,34,4.25v25.5A4.25,4.25,0,0,1,29.75,34Zm-6.8-1.7h6.8a2.55,2.55,0,0,0,2.55-2.55V4.25A2.55,2.55,0,0,0,29.75,1.7H4.25A2.55,2.55,0,0,0,1.7,4.25v25.5A2.55,2.55,0,0,0,4.25,32.3H15.3V22.95H11.05V15.3H15.3V11.9a8.51,8.51,0,0,1,8.5-8.5h4.25v7.65H23.8a.85.85,0,0,0-.85.85v3.4h5.695L26.69,22.95H22.95Zm0,0" transform="translate(0.5 0.5)"/></svg>