<svg xmlns="http://www.w3.org/2000/svg" width="35" height="35" viewBox="0 0 35 35">
  <g id="_011-instagram" data-name="011-instagram" transform="translate(0.5 0.5)">
    <path id="Path_97" data-name="Path 97" d="M29.75,34H4.25A4.25,4.25,0,0,1,0,29.75V4.25A4.25,4.25,0,0,1,4.25,0h25.5A4.25,4.25,0,0,1,34,4.25v25.5A4.25,4.25,0,0,1,29.75,34ZM4.25,1.7A2.55,2.55,0,0,0,1.7,4.25v25.5A2.55,2.55,0,0,0,4.25,32.3h25.5a2.55,2.55,0,0,0,2.55-2.55V4.25A2.55,2.55,0,0,0,29.75,1.7Zm0,0" fill="#f3f6ff" stroke="#f3f6ff" stroke-width="1"/>
    <path id="Path_98" data-name="Path 98" d="M105.35,114.7a9.35,9.35,0,1,1,9.35-9.35A9.35,9.35,0,0,1,105.35,114.7Zm0-17a7.65,7.65,0,1,0,7.65,7.65A7.65,7.65,0,0,0,105.35,97.7Zm0,0" transform="translate(-88.35 -88.35)" fill="#f3f6ff" stroke="#f3f6ff" stroke-width="1"/>
    <path id="Path_99" data-name="Path 99" d="M320,64h3.4v1.7H320Zm0,0" transform="translate(-294.5 -58.9)" fill="#f3f6ff" stroke="#f3f6ff" stroke-width="1"/>
  </g>
</svg>
