<svg xmlns="http://www.w3.org/2000/svg" width="33.951" height="34" viewBox="0 0 33.951 34"><defs><style>.a{fill:#f3f6ff;}</style></defs><g transform="translate(-0.344 0)"><g transform="translate(0.344 0)"><path class="a" d="M27.19,46.5a3.344,3.344,0,0,0-2.425-1.112,3.458,3.458,0,0,0-2.454,1.105l-2.268,2.26c-.187-.1-.373-.194-.553-.287-.258-.129-.5-.251-.71-.38a24.646,24.646,0,0,1-5.906-5.382,14.54,14.54,0,0,1-1.938-3.057c.588-.538,1.134-1.1,1.665-1.636.2-.2.4-.409.6-.61a3.292,3.292,0,0,0,0-4.966l-1.959-1.959c-.222-.222-.452-.452-.667-.682-.431-.445-.883-.9-1.349-1.335a3.4,3.4,0,0,0-2.4-1.055,3.515,3.515,0,0,0-2.44,1.055l-.014.014-2.44,2.461A5.25,5.25,0,0,0,.374,34.273,12.58,12.58,0,0,0,1.293,39.6a30.9,30.9,0,0,0,5.49,9.156,33.769,33.769,0,0,0,11.245,8.8,17.52,17.52,0,0,0,6.315,1.866c.151.007.309.014.452.014a5.407,5.407,0,0,0,4.141-1.78c.007-.014.022-.022.029-.036a16.313,16.313,0,0,1,1.256-1.3c.309-.294.624-.6.933-.926a3.58,3.58,0,0,0,1.084-2.483,3.449,3.449,0,0,0-1.105-2.461Zm2.569,7.556c-.007,0-.007.007,0,0-.28.3-.567.574-.875.875A18.869,18.869,0,0,0,27.5,56.368a3.459,3.459,0,0,1-2.7,1.141c-.108,0-.222,0-.33-.007a15.564,15.564,0,0,1-5.6-1.679,31.876,31.876,0,0,1-10.592-8.3,29.133,29.133,0,0,1-5.167-8.6,10.246,10.246,0,0,1-.8-4.492A3.294,3.294,0,0,1,3.3,32.3l2.447-2.447a1.631,1.631,0,0,1,1.091-.509,1.535,1.535,0,0,1,1.048.5l.022.022c.438.409.854.832,1.292,1.284.222.23.452.459.682.7l1.959,1.959a1.37,1.37,0,0,1,0,2.225c-.208.208-.409.416-.617.617-.6.617-1.177,1.191-1.8,1.751-.014.014-.029.022-.036.036a1.464,1.464,0,0,0-.373,1.629l.022.065a15.728,15.728,0,0,0,2.318,3.782l.007.007a26.338,26.338,0,0,0,6.372,5.8,9.8,9.8,0,0,0,.883.481c.258.129.5.251.71.38.029.014.057.036.086.05a1.556,1.556,0,0,0,.71.179,1.534,1.534,0,0,0,1.091-.5l2.454-2.454a1.623,1.623,0,0,1,1.084-.538,1.461,1.461,0,0,1,1.033.524l.014.014,3.954,3.954A1.419,1.419,0,0,1,29.759,54.057Z" transform="translate(-0.344 -25.439)"/><path class="a" d="M245.741,87.847a9.235,9.235,0,0,1,7.52,7.52.963.963,0,0,0,.954.8,1.282,1.282,0,0,0,.165-.014.97.97,0,0,0,.8-1.119,11.167,11.167,0,0,0-9.1-9.1.974.974,0,0,0-1.119.789A.958.958,0,0,0,245.741,87.847Z" transform="translate(-227.391 -79.759)"/><path class="a" d="M264.884,15A18.388,18.388,0,0,0,249.9.015a.967.967,0,1,0-.316,1.909,16.424,16.424,0,0,1,13.39,13.39.963.963,0,0,0,.954.8,1.282,1.282,0,0,0,.165-.014A.951.951,0,0,0,264.884,15Z" transform="translate(-230.948 0)"/></g></g></svg>