<svg xmlns="http://www.w3.org/2000/svg" width="41.923" height="40" viewBox="0 0 41.923 40">
  <g id="archive" transform="translate(0 -10.287)">
    <path id="Path_57" data-name="Path 57" d="M104.891,16.392h2.93l.635-3.858a1.933,1.933,0,0,0-.44-1.563,1.979,1.979,0,0,0-1.465-.684H83.743a1.831,1.831,0,0,0-1.465.684,1.862,1.862,0,0,0-.44,1.563l.635,3.858h22.418Z" transform="translate(-74.161)" fill="#00bbd3"/>
    <path id="Path_58" data-name="Path 58" d="M70.066,79.184l.635-3.956a1.933,1.933,0,0,0-.44-1.563,1.979,1.979,0,0,0-1.465-.684H37.245a1.831,1.831,0,0,0-1.465.684,1.862,1.862,0,0,0-.44,1.563l.635,3.956Z" transform="translate(-32.01 -56.833)" fill="#d4e1f4"/>
    <path id="Path_59" data-name="Path 59" d="M41.475,137.4a2,2,0,0,0-1.514-.684h-38a2,2,0,0,0-1.514.684,1.952,1.952,0,0,0-.44,1.465l2.247,23.394v.049a2.992,2.992,0,0,0,2.93,2.589H36.737a2.891,2.891,0,0,0,2.93-2.637l2.247-23.394A2.08,2.08,0,0,0,41.475,137.4Z" transform="translate(0 -114.613)" fill="#4dcfe0"/>
    <path id="Path_60" data-name="Path 60" d="M156.5,235.461H144.192a1.465,1.465,0,1,0,0,2.93H156.5a1.465,1.465,0,0,0,0-2.93Z" transform="translate(-129.384 -204.124)" fill="#00bbd3"/>
  </g>
</svg>
